<svg id="visual" viewBox="0 0 450 900" width="450" height="900" xmlns="http://www.w3.org/2000/svg" xmlns:xlink="http://www.w3.org/1999/xlink" version="1.1"><rect x="0" y="0" width="450" height="900" fill="#001220"></rect><defs><linearGradient id="grad1_0" x1="0%" y1="0%" x2="100%" y2="100%"><stop offset="30%" stop-color="#001220" stop-opacity="1"></stop><stop offset="70%" stop-color="#001220" stop-opacity="1"></stop></linearGradient></defs><defs><linearGradient id="grad2_0" x1="0%" y1="0%" x2="100%" y2="100%"><stop offset="30%" stop-color="#001220" stop-opacity="1"></stop><stop offset="70%" stop-color="#001220" stop-opacity="1"></stop></linearGradient></defs><g transform="translate(450, 0)"><path d="M0 292.5C-51.6 285.1 -103.2 277.7 -146.2 253.3C-189.3 228.9 -223.9 187.5 -246.8 142.5C-269.8 97.5 -281.1 48.7 -292.5 0L0 0Z" fill="#FBAE3C"></path></g><g transform="translate(0, 900)"><path d="M0 -292.5C51.9 -285.3 103.9 -278.1 146.2 -253.3C188.6 -228.5 221.4 -186.1 244.2 -141C267 -95.9 279.8 -47.9 292.5 0L0 0Z" fill="#FBAE3C"></path></g></svg>