<svg id="visual" viewBox="0 0 900 800" width="900" height="800" xmlns="http://www.w3.org/2000/svg" xmlns:xlink="http://www.w3.org/1999/xlink" version="1.1"><rect x="0" y="0" width="900" height="800" fill="#001220"></rect><defs><linearGradient id="grad1_0" x1="11.1%" y1="0%" x2="100%" y2="100%"><stop offset="27.5%" stop-color="#001220" stop-opacity="1"></stop><stop offset="72.5%" stop-color="#001220" stop-opacity="1"></stop></linearGradient></defs><defs><linearGradient id="grad2_0" x1="0%" y1="0%" x2="88.9%" y2="100%"><stop offset="27.5%" stop-color="#001220" stop-opacity="1"></stop><stop offset="72.5%" stop-color="#001220" stop-opacity="1"></stop></linearGradient></defs><g transform="translate(900, 0)"><path d="M0 391.4C-63.5 373.2 -127 355.1 -187.5 324.8C-248 294.4 -305.4 251.8 -338.9 195.7C-372.4 139.5 -381.9 69.8 -391.4 0L0 0Z" fill="#FBAE3C"></path></g><g transform="translate(0, 800)"><path d="M0 -391.4C65.4 -376.5 130.7 -361.6 191 -330.8C251.3 -300.1 306.4 -253.5 338.9 -195.7C371.5 -137.9 381.4 -68.9 391.4 0L0 0Z" fill="#FBAE3C"></path></g></svg>