<svg id="visual" viewBox="0 0 960 540" width="960" height="540" xmlns="http://www.w3.org/2000/svg" xmlns:xlink="http://www.w3.org/1999/xlink" version="1.1"><rect x="0" y="0" width="960" height="540" fill="#001220"></rect><defs><linearGradient id="grad1_0" x1="43.8%" y1="0%" x2="100%" y2="100%"><stop offset="14.444444444444446%" stop-color="#001220" stop-opacity="1"></stop><stop offset="85.55555555555554%" stop-color="#001220" stop-opacity="1"></stop></linearGradient></defs><defs><linearGradient id="grad2_0" x1="0%" y1="0%" x2="56.3%" y2="100%"><stop offset="14.444444444444446%" stop-color="#001220" stop-opacity="1"></stop><stop offset="85.55555555555554%" stop-color="#001220" stop-opacity="1"></stop></linearGradient></defs><g transform="translate(960, 0)"><path d="M0 405C-56.1 369.6 -112.2 334.2 -176 304.8C-239.8 275.5 -311.3 252.3 -350.7 202.5C-390.2 152.7 -397.6 76.4 -405 0L0 0Z" fill="#ff9900"></path></g><g transform="translate(0, 540)"><path d="M0 -405C67.3 -389 134.6 -373 197 -341.2C259.4 -309.5 316.9 -262 350.7 -202.5C384.6 -143 394.8 -71.5 405 0L0 0Z" fill="#ff9900"></path></g></svg>