<svg width="42" height="42" viewBox="0 0 42 42" fill="none" xmlns="http://www.w3.org/2000/svg">
<path d="M24.78 18.2L16.03 11.9525C14.805 11.0775 13.1775 11.0775 11.97 11.9525L3.22 18.2C2.2925 18.865 1.75 19.915 1.75 21.0525V35C1.75 35.9625 2.5375 36.75 3.5 36.75H10.5V26.25H17.5V36.75H24.5C25.4625 36.75 26.25 35.9625 26.25 35V21.0525C26.25 19.915 25.7075 18.865 24.78 18.2Z" fill="#F8F8F8"/>
<path d="M36.8025 5.25H20.9475C19.04 5.25 17.5 6.79 17.5 8.6975L17.6575 8.855C17.7975 8.9425 17.9375 9.0125 18.0775 9.1L26.8275 15.3475C28.1575 16.2925 29.1025 17.6925 29.5225 19.25H33.25V22.75H29.75V26.25H33.25V29.75H29.75V36.75H36.8025C38.71 36.75 40.25 35.21 40.25 33.3025V8.6975C40.25 6.79 38.71 5.25 36.8025 5.25ZM33.25 15.75H29.75V12.25H33.25V15.75Z" fill="#F8F8F8"/>
</svg>
