<svg width="364" height="383" viewBox="0 0 364 383" fill="none" xmlns="http://www.w3.org/2000/svg">
<path d="M214.76 165.967L138.927 108.995C128.31 101.016 114.205 101.016 103.74 108.995L27.9067 165.967C19.8684 172.031 15.1667 181.606 15.1667 191.979V319.167C15.1667 327.944 21.9917 335.125 30.3334 335.125H91.0001V239.375H151.667V335.125H212.333C220.675 335.125 227.5 327.944 227.5 319.167V191.979C227.5 181.606 222.798 172.031 214.76 165.967Z" fill="black"/>
<path d="M318.955 47.875H181.545C165.013 47.875 151.667 61.9183 151.667 79.3129L153.032 80.7492C154.245 81.5471 155.458 82.1854 156.672 82.9833L232.505 139.955C244.032 148.572 252.222 161.339 255.862 175.542H288.167V207.458H257.833V239.375H288.167V271.292H257.833V335.125H318.955C335.487 335.125 348.833 321.082 348.833 303.687V79.3129C348.833 61.9183 335.487 47.875 318.955 47.875ZM288.167 143.625H257.833V111.708H288.167V143.625Z" fill="black"/>
</svg>
