<svg width="27" height="24" viewBox="0 0 27 24" fill="none" xmlns="http://www.w3.org/2000/svg">
<path d="M13.6311 15.2C15.5237 15.2 17.058 13.7673 17.058 12C17.058 10.2327 15.5237 8.79999 13.6311 8.79999C11.7384 8.79999 10.2041 10.2327 10.2041 12C10.2041 13.7673 11.7384 15.2 13.6311 15.2Z" fill="#F8F8F8"/>
<path d="M10.4183 2L8.45854 4H5.06372C3.8857 4 2.92188 4.9 2.92188 6V18C2.92188 19.1 3.8857 20 5.06372 20H22.1985C23.3765 20 24.3403 19.1 24.3403 18V6C24.3403 4.9 23.3765 4 22.1985 4H18.8036L16.8439 2H10.4183ZM13.6311 17C10.6754 17 8.27649 14.76 8.27649 12C8.27649 9.24 10.6754 7 13.6311 7C16.5868 7 18.9857 9.24 18.9857 12C18.9857 14.76 16.5868 17 13.6311 17Z" fill="#F8F8F8"/>
</svg>
