<svg width="155" height="54" viewBox="0 0 155 54" fill="none" xmlns="http://www.w3.org/2000/svg">
<rect x="2" y="2" width="151" height="50" rx="10" fill="#FB8500" stroke="white" stroke-width="3"/>
<path d="M57.2963 19.4545L60.812 30.5057H60.9469L64.4696 19.4545H67.8787L62.8645 34H58.9015L53.8801 19.4545H57.2963ZM69.6294 34V19.4545H79.4306V21.9901H72.7047V25.456H78.9263V27.9915H72.7047V31.4645H79.459V34H69.6294ZM94.0417 19.4545V34H91.3855L85.0574 24.8452H84.9508V34H81.8755V19.4545H84.5744L90.8528 28.6023H90.9806V19.4545H94.0417ZM101.739 34H96.5826V19.4545H101.781C103.244 19.4545 104.504 19.7457 105.56 20.3281C106.616 20.9058 107.428 21.7367 107.996 22.821C108.569 23.9053 108.855 25.2027 108.855 26.7131C108.855 28.2282 108.569 29.5303 107.996 30.6193C107.428 31.7083 106.611 32.544 105.546 33.1264C104.485 33.7088 103.216 34 101.739 34ZM99.6578 31.3651H101.611C102.52 31.3651 103.285 31.2041 103.905 30.8821C104.53 30.5554 104.999 30.0511 105.311 29.3693C105.628 28.6828 105.787 27.7973 105.787 26.7131C105.787 25.6383 105.628 24.7599 105.311 24.0781C104.999 23.3963 104.532 22.8944 103.912 22.5724C103.292 22.2505 102.527 22.0895 101.618 22.0895H99.6578V31.3651ZM111.133 34V19.4545H116.872C117.97 19.4545 118.908 19.651 119.684 20.044C120.466 20.4323 121.06 20.9839 121.467 21.6989C121.879 22.4091 122.085 23.2448 122.085 24.206C122.085 25.1719 121.877 26.0028 121.46 26.6989C121.043 27.3902 120.44 27.9205 119.649 28.2898C118.863 28.6591 117.911 28.8438 116.794 28.8438H112.952V26.3722H116.297C116.884 26.3722 117.372 26.2917 117.76 26.1307C118.148 25.9697 118.437 25.7282 118.626 25.4062C118.82 25.0843 118.917 24.6842 118.917 24.206C118.917 23.723 118.82 23.3158 118.626 22.9844C118.437 22.6529 118.146 22.402 117.753 22.2315C117.364 22.0563 116.874 21.9688 116.282 21.9688H114.209V34H111.133ZM118.988 27.3807L122.604 34H119.209L115.672 27.3807H118.988ZM124.258 34V19.4545H134.059V21.9901H127.334V25.456H133.555V27.9915H127.334V31.4645H134.088V34H124.258Z" fill="white"/>
<path d="M26.6311 30.2C28.5237 30.2 30.058 28.7673 30.058 27C30.058 25.2327 28.5237 23.8 26.6311 23.8C24.7384 23.8 23.2041 25.2327 23.2041 27C23.2041 28.7673 24.7384 30.2 26.6311 30.2Z" fill="#F8F8F8"/>
<path d="M23.4183 17L21.4585 19H18.0637C16.8857 19 15.9219 19.9 15.9219 21V33C15.9219 34.1 16.8857 35 18.0637 35H35.1985C36.3765 35 37.3403 34.1 37.3403 33V21C37.3403 19.9 36.3765 19 35.1985 19H31.8036L29.8439 17H23.4183ZM26.6311 32C23.6754 32 21.2765 29.76 21.2765 27C21.2765 24.24 23.6754 22 26.6311 22C29.5868 22 31.9857 24.24 31.9857 27C31.9857 29.76 29.5868 32 26.6311 32Z" fill="#F8F8F8"/>
</svg>
