<svg width="512" height="512" viewBox="0 0 512 512" fill="none" xmlns="http://www.w3.org/2000/svg">
<path d="M153.106 312.121V512H168.717V327.731H345.18V512H360.791V312.121H153.106Z" fill="#EEB31D"/>
<path d="M295.548 386.072V512H311.158V401.683H319.484V386.072H295.548Z" fill="#EEB31D"/>
<path d="M192.516 386.072V401.683H200.842V512H216.452V386.072H192.516Z" fill="#EEB31D"/>
<path d="M209.127 128.05V295.719H304.769V128.05H209.127ZM289.157 280.108H224.737V143.661H289.157V280.108Z" fill="#EEB31D"/>
<path d="M368.398 360.054V375.665H488.082V512H503.692V360.054H368.398Z" fill="#EEB31D"/>
<path d="M447.493 417.294V512H463.104V432.905H472.471V417.294H447.493Z" fill="#EEB31D"/>
<path d="M368.398 417.294V432.905H376.724V512H392.335V417.294H368.398Z" fill="#EEB31D"/>
<path d="M393.199 240.092V343.738H448.825V240.092H393.199ZM433.214 328.127H408.81V255.703H433.214V328.127Z" fill="#EEB31D"/>
<path d="M8.30811 360.054V512H23.9181V375.665H143.602V360.054H8.30811Z" fill="#EEB31D"/>
<path d="M40.5701 417.294V432.905H47.8551V512H63.4661V417.294H40.5701Z" fill="#EEB31D"/>
<path d="M120.706 417.294V512H136.317V432.905H143.602V417.294H120.706Z" fill="#EEB31D"/>
<path d="M65.072 240.092V343.738H120.699V240.092H65.072ZM105.088 328.127H80.683V255.703H105.088V328.127Z" fill="#EEB31D"/>
<path d="M265.365 337.153H249.754V352.764H265.365V337.153Z" fill="#EEB31D"/>
<path d="M265.365 360.049H249.754V446.429H265.365V360.049Z" fill="#EEB31D"/>
<path d="M232.061 41.593H216.45V57.204H232.061V41.593Z" fill="#EEB31D"/>
<path d="M265.365 41.593H249.754V57.204H265.365V41.593Z" fill="#EEB31D"/>
<path d="M296.586 41.593H280.975V57.204H296.586V41.593Z" fill="#EEB31D"/>
<path d="M344.785 41.593V0H169.112V41.593H152.968V57.204H169.112V95.642H230.579L256.948 113.225L283.318 95.642H344.785V57.203H360.073V41.593H344.785ZM329.173 80.031H278.59L256.947 94.461L235.306 80.031H184.723V15.611H329.173V80.031Z" fill="#EEB31D"/>
<path d="M143.602 57.203V41.593H88.4429V190.161L78.3959 180.112L67.3569 191.152L95.8459 220.68L125.375 191.151L115.375 180.113L104.054 191.435V57.203H143.602Z" fill="#EEB31D"/>
<path d="M434.458 182.194L423.557 193.097V41.593H368.398V57.203H407.946V192.662L397.479 182.193L386.439 193.233L415.969 222.762L445.497 193.232L434.458 182.194Z" fill="#EEB31D"/>
</svg>
