<?xml version="1.0" standalone="no"?>
<!DOCTYPE svg PUBLIC "-//W3C//DTD SVG 20010904//EN"
 "http://www.w3.org/TR/2001/REC-SVG-20010904/DTD/svg10.dtd">
<svg version="1.0" xmlns="http://www.w3.org/2000/svg"
 width="180.000000pt" height="180.000000pt" viewBox="0 0 180.000000 180.000000"
 preserveAspectRatio="xMidYMid meet">
<metadata>
Created by potrace 1.14, written by Peter Selinger 2001-2017
</metadata>
<g transform="translate(0.000000,180.000000) scale(0.100000,-0.100000)"
fill="#000000" stroke="none">
<path d="M1205 1704 c-5 -1 -22 -5 -36 -8 -43 -9 -95 -66 -106 -116 -2 -8 -4
-240 -5 -514 -1 -524 -4 -569 -46 -626 -65 -86 -221 -87 -278 -1 -16 25 -25
56 -29 101 -9 120 -29 164 -85 192 -75 38 -176 6 -214 -67 -32 -61 -30 -207 4
-293 52 -133 172 -225 330 -255 72 -13 227 -14 280 -2 14 3 36 8 50 11 54 10
154 68 204 118 60 60 101 140 121 235 18 88 22 1057 4 1111 -22 65 -79 110
-148 115 -20 1 -40 1 -46 -1z"/>
</g>
</svg>
